# Exported from ProBuilder
# http://www.procore3d.com/probuilder
# 10/25/2018 10:47:35 AM

mtllib ./Stairs.mtl
o Stairs

g Stairs
v 0 0 0
v 2 0 0
v 0 0.4166667 0
v 2 0.4166667 0
v 0 0.4166667 0
v 2 0.4166667 0
v 0 0.4166667 0.6666667
v 2 0.4166667 0.6666667
v 0 0.4166667 0.6666667
v 2 0.4166667 0.6666667
v 0 0.8333334 0.6666667
v 2 0.8333334 0.6666667
v 0 0.8333334 0.6666667
v 2 0.8333334 0.6666667
v 0 0.8333334 1.333333
v 2 0.8333334 1.333333
v 0 0.8333334 1.333333
v 2 0.8333334 1.333333
v 0 1.25 1.333333
v 2 1.25 1.333333
v 0 1.25 1.333333
v 2 1.25 1.333333
v 0 1.25 2
v 2 1.25 2
v 0 1.25 2
v 2 1.25 2
v 0 1.666667 2
v 2 1.666667 2
v 0 1.666667 2
v 2 1.666667 2
v 0 1.666667 2.666667
v 2 1.666667 2.666667
v 0 1.666667 2.666667
v 2 1.666667 2.666667
v 0 2.083333 2.666667
v 2 2.083333 2.666667
v 0 2.083333 2.666667
v 2 2.083333 2.666667
v 0 2.083333 3.333333
v 2 2.083333 3.333333
v 0 2.083333 3.333333
v 2 2.083333 3.333333
v 0 2.5 3.333333
v 2 2.5 3.333333
v 0 2.5 3.333333
v 2 2.5 3.333333
v 0 2.5 4
v 2 2.5 4
v 2 0 0
v 2 0 0.6666667
v 2 0.4166667 0
v 2 0.4166667 0.6666667
v 2 0 0.6666667
v 2 0 1.333333
v 2 0.4166667 0.6666667
v 2 0.8333333 1.333333
v 2 0.4166667 0.6666667
v 2 0.8333333 0.6666667
v 2 0.8333333 1.333333
v 2 0 1.333333
v 2 0 2
v 2 0.8333333 1.333333
v 2 1.25 2
v 2 0.8333333 1.333333
v 2 1.25 1.333333
v 2 1.25 2
v 2 0 2
v 2 0 2.666667
v 2 1.25 2
v 2 1.666667 2.666667
v 2 1.25 2
v 2 1.666667 2
v 2 1.666667 2.666667
v 2 0 2.666667
v 2 0 3.333333
v 2 1.666667 2.666667
v 2 2.083333 3.333333
v 2 1.666667 2.666667
v 2 2.083333 2.666667
v 2 2.083333 3.333333
v 2 0 3.333333
v 2 0 4
v 2 2.083333 3.333333
v 2 2.5 4
v 2 2.083333 3.333333
v 2 2.5 3.333333
v 2 2.5 4
v 0 0 0
v 0 0 0.6666667
v 0 0.4166667 0
v 0 0.4166667 0.6666667
v 0 0 0.6666667
v 0 0 1.333333
v 0 0.4166667 0.6666667
v 0 0.8333333 1.333333
v 0 0.4166667 0.6666667
v 0 0.8333333 0.6666667
v 0 0.8333333 1.333333
v 0 0 1.333333
v 0 0 2
v 0 0.8333333 1.333333
v 0 1.25 2
v 0 0.8333333 1.333333
v 0 1.25 1.333333
v 0 1.25 2
v 0 0 2
v 0 0 2.666667
v 0 1.25 2
v 0 1.666667 2.666667
v 0 1.25 2
v 0 1.666667 2
v 0 1.666667 2.666667
v 0 0 2.666667
v 0 0 3.333333
v 0 1.666667 2.666667
v 0 2.083333 3.333333
v 0 1.666667 2.666667
v 0 2.083333 2.666667
v 0 2.083333 3.333333
v 0 0 3.333333
v 0 0 4
v 0 2.083333 3.333333
v 0 2.5 4
v 0 2.083333 3.333333
v 0 2.5 3.333333
v 0 2.5 4
v 2 0 4
v 0 0 4
v 2 2.5 4
v 0 2.5 4

vn 0 0 -1
vn 0 0 -1
vn 0 0 -1
vn 0 0 -1
vn 0 1 0
vn 0 1 0
vn 0 1 0
vn 0 1 0
vn 0 0 -1
vn 0 0 -1
vn 0 0 -1
vn 0 0 -1
vn 0 1 0
vn 0 1 0
vn 0 1 0
vn 0 1 0
vn 0 0 -1
vn 0 0 -1
vn 0 0 -1
vn 0 0 -1
vn 0 1 0
vn 0 1 0
vn 0 1 0
vn 0 1 0
vn 0 0 -1
vn 0 0 -1
vn 0 0 -1
vn 0 0 -1
vn 0 1 0
vn 0 1 0
vn 0 1 0
vn 0 1 0
vn 0 0 -0.9999999
vn 0 0 -0.9999999
vn 0 0 -0.9999999
vn 0 0 -0.9999999
vn 0 1 0
vn 0 1 0
vn 0 1 0
vn 0 1 0
vn 0 0 -1
vn 0 0 -1
vn 0 0 -1
vn 0 0 -1
vn 0 1 0
vn 0 1 0
vn 0 1 0
vn 0 1 0
vn 1 0 0
vn 1 0 0
vn 1 0 0
vn 1 0 0
vn 1 0 0
vn 1 0 0
vn 1 0 0
vn 1 0 0
vn 1 0 0
vn 1 0 0
vn 1 0 0
vn 1 0 0
vn 1 0 0
vn 1 0 0
vn 1 0 0
vn 1 0 0
vn 1 0 0
vn 1 0 0
vn 1 0 0
vn 1 0 0
vn 0.9999999 0 0
vn 1 0 0
vn 1 0 0
vn 1 0 0
vn 1 0 0
vn 1 0 0
vn 1 0 0
vn 1 0 0
vn 1 0 0
vn 1 0 0
vn 1 0 0
vn 1 0 0
vn 1 0 0
vn 0.9999999 0 0
vn 1 0 0
vn 1 0 0
vn 1 0 0
vn 1 0 0
vn 1 0 0
vn -1 0 0
vn -1 0 0
vn -1 0 0
vn -1 0 0
vn -1 0 0
vn -1 0 0
vn -1 0 0
vn -1 0 0
vn -1 0 0
vn -1 0 0
vn -1 0 0
vn -1 0 0
vn -1 0 0
vn -1 0 0
vn -1 0 0
vn -1 0 0
vn -1 0 0
vn -1 0 0
vn -0.9999999 0 0
vn -1 0 0
vn -1 0 0
vn -1 0 0
vn -1 0 0
vn -1 0 0
vn -1 0 0
vn -1 0 0
vn -1 0 0
vn -1 0 0
vn -1 0 0
vn -1 0 0
vn -1 0 0
vn -1 0 0
vn -1 0 0
vn -1 0 0
vn -1 0 0
vn -0.9999999 0 0
vn -1 0 0
vn -1 0 0
vn -1 0 0
vn 0 0 1
vn 0 0 1
vn 0 0 1
vn 0 0 1

vt 0 0
vt -2 0
vt 0 0.4166667
vt -2 0.4166667
vt 0 0
vt -2 0
vt 0 0.6666667
vt -2 0.6666667
vt 0 0.4166667
vt -2 0.4166667
vt 0 0.8333334
vt -2 0.8333334
vt 0 0.6666667
vt -2 0.6666667
vt 0 1.333333
vt -2 1.333333
vt 0 0.8333334
vt -2 0.8333334
vt 0 1.25
vt -2 1.25
vt 0 1.333333
vt -2 1.333333
vt 0 2
vt -2 2
vt 0 1.25
vt -2 1.25
vt 0 1.666667
vt -2 1.666667
vt 0 2
vt -2 2
vt 0 2.666667
vt -2 2.666667
vt 0 1.666667
vt -2 1.666667
vt 0 2.083333
vt -2 2.083333
vt 0 2.666667
vt -2 2.666667
vt 0 3.333333
vt -2 3.333333
vt 0 2.083333
vt -2 2.083333
vt 0 2.5
vt -2 2.5
vt 0 3.333333
vt -2 3.333333
vt 0 4
vt -2 4
vt 0 0
vt 0.6666667 0
vt 0 0.4166667
vt 0.6666667 0.4166667
vt 0.6666667 0
vt 1.333333 0
vt 0.6666667 0.4166667
vt 1.333333 0.8333333
vt 0.6666667 0.4166667
vt 0.6666667 0.8333333
vt 1.333333 0.8333333
vt 1.333333 0
vt 2 0
vt 1.333333 0.8333333
vt 2 1.25
vt 1.333333 0.8333333
vt 1.333333 1.25
vt 2 1.25
vt 2 0
vt 2.666667 0
vt 2 1.25
vt 2.666667 1.666667
vt 2 1.25
vt 2 1.666667
vt 2.666667 1.666667
vt 2.666667 0
vt 3.333333 0
vt 2.666667 1.666667
vt 3.333333 2.083333
vt 2.666667 1.666667
vt 2.666667 2.083333
vt 3.333333 2.083333
vt 3.333333 0
vt 4 0
vt 3.333333 2.083333
vt 4 2.5
vt 3.333333 2.083333
vt 3.333333 2.5
vt 4 2.5
vt 0 0
vt 0.6666667 0
vt 0 0.4166667
vt 0.6666667 0.4166667
vt 0.6666667 0
vt 1.333333 0
vt 0.6666667 0.4166667
vt 1.333333 0.8333333
vt 0.6666667 0.4166667
vt 0.6666667 0.8333333
vt 1.333333 0.8333333
vt 1.333333 0
vt 2 0
vt 1.333333 0.8333333
vt 2 1.25
vt 1.333333 0.8333333
vt 1.333333 1.25
vt 2 1.25
vt 2 0
vt 2.666667 0
vt 2 1.25
vt 2.666667 1.666667
vt 2 1.25
vt 2 1.666667
vt 2.666667 1.666667
vt 2.666667 0
vt 3.333333 0
vt 2.666667 1.666667
vt 3.333333 2.083333
vt 2.666667 1.666667
vt 2.666667 2.083333
vt 3.333333 2.083333
vt 3.333333 0
vt 4 0
vt 3.333333 2.083333
vt 4 2.5
vt 3.333333 2.083333
vt 3.333333 2.5
vt 4 2.5
vt 2 0
vt 0 0
vt 2 2.5
vt 0 2.5

g Stairs_0
usemtl Default_Prototype
f 3/3/3 4/4/4 2/2/2 1/1/1
f 7/7/7 8/8/8 6/6/6 5/5/5
f 11/11/11 12/12/12 10/10/10 9/9/9
f 15/15/15 16/16/16 14/14/14 13/13/13
f 19/19/19 20/20/20 18/18/18 17/17/17
f 23/23/23 24/24/24 22/22/22 21/21/21
f 27/27/27 28/28/28 26/26/26 25/25/25
f 31/31/31 32/32/32 30/30/30 29/29/29
f 35/35/35 36/36/36 34/34/34 33/33/33
f 39/39/39 40/40/40 38/38/38 37/37/37
f 43/43/43 44/44/44 42/42/42 41/41/41
f 47/47/47 48/48/48 46/46/46 45/45/45
f 51/51/51 52/52/52 50/50/50 49/49/49
f 55/55/55 56/56/56 54/54/54 53/53/53
f 62/62/62 63/63/63 61/61/61 60/60/60
f 69/69/69 70/70/70 68/68/68 67/67/67
f 76/76/76 77/77/77 75/75/75 74/74/74
f 83/83/83 84/84/84 82/82/82 81/81/81
f 91/91/91 90/90/90 88/88/88 89/89/89
f 95/95/95 94/94/94 92/92/92 93/93/93
f 102/102/102 101/101/101 99/99/99 100/100/100
f 109/109/109 108/108/108 106/106/106 107/107/107
f 116/116/116 115/115/115 113/113/113 114/114/114
f 123/123/123 122/122/122 120/120/120 121/121/121
f 129/129/129 130/130/130 128/128/128 127/127/127

g Stairs_1
usemtl Default_Prototype
f 57/57/57 58/58/58 59/59/59
f 64/64/64 65/65/65 66/66/66
f 71/71/71 72/72/72 73/73/73
f 78/78/78 79/79/79 80/80/80
f 85/85/85 86/86/86 87/87/87
f 98/98/98 97/97/97 96/96/96
f 105/105/105 104/104/104 103/103/103
f 112/112/112 111/111/111 110/110/110
f 119/119/119 118/118/118 117/117/117
f 126/126/126 125/125/125 124/124/124

